<?xml version="1.0" standalone="no"?>
<!DOCTYPE svg PUBLIC "-//W3C//DTD SVG 20010904//EN"
 "http://www.w3.org/TR/2001/REC-SVG-20010904/DTD/svg10.dtd">
<svg version="1.0" xmlns="http://www.w3.org/2000/svg"
 width="154.000000pt" height="154.000000pt" viewBox="0 0 154.000000 154.000000"
 preserveAspectRatio="xMidYMid meet">
<metadata>
Created by potrace 1.13, written by Peter Selinger 2001-2015
</metadata>
<g transform="translate(0.000000,154.000000) scale(0.100000,-0.100000)"
fill= "rgba(0,0,0,0.7)" stroke="none">
<path d="M303 1133 c-20 -7 -15 -41 6 -53 13 -6 176 -10 461 -10 285 0 448 4
461 10 23 13 25 46 3 54 -19 7 -913 7 -931 -1z"/>
<path d="M294 785 c-4 -8 -4 -22 0 -30 5 -13 64 -15 478 -13 l473 3 0 25 0 25
-473 3 c-414 2 -473 0 -478 -13z"/>
<path d="M308 459 c-22 -13 -23 -45 -2 -53 20 -8 908 -8 928 0 22 8 20 41 -3
54 -27 14 -899 13 -923 -1z"/>
</g>
</svg>
