<svg xmlns="http://www.w3.org/2000/svg" viewBox="0 0 40 40"><path fill="#101C3C" d="M24 28.5h-8c-1.4 0-2.5-1.1-2.5-2.5V14c0-1.4 1.1-2.5 2.5-2.5h3.6c.4 0 .8.2 1.1.4l5.4 5.4c.3.3.4.7.4 1.1V26c0 1.4-1.1 2.5-2.5 2.5zm-8-16c-.8 0-1.5.7-1.5 1.5v12c0 .8.7 1.5 1.5 1.5h8c.8 0 1.5-.7 1.5-1.5v-7.6c0-.1-.1-.3-.1-.4L20 12.6c-.1-.1-.2-.1-.4-.1H16z"/><path fill="#101C3C" d="M20.5 12v4c0 .8.7 1.5 1.5 1.5h4v1h-4c-1.4 0-2.5-1.1-2.5-2.5v-4h1zM23 26h-6c-.3 0-.5-.2-.5-.5s.2-.5.5-.5h6c.3 0 .5.2.5.5s-.2.5-.5.5zM23 23.5h-6c-.3 0-.5-.2-.5-.5s.2-.5.5-.5h6c.3 0 .5.2.5.5s-.2.5-.5.5z"/><g><path fill="#101C3C" d="M23 21h-6c-.3 0-.5-.2-.5-.5s.2-.5.5-.5h6c.3 0 .5.2.5.5s-.2.5-.5.5z"/></g></svg>