<svg version="1" xmlns="http://www.w3.org/2000/svg" width="205.333" height="205.333" viewBox="0 0 154.000000 154.000000"><g fill="#101C3C"><path d="M40.5 14.5c-5 1.8-10 7.1-11.4 12.2-1.5 5.3-1.5 95.4 0 100.8 1.4 5.1 7.3 11 12.4 12.4 5.4 1.5 65.6 1.5 71 0 5.1-1.4 11-7.3 12.4-12.4 1.4-5.3 1.5-63.3 0-67.1-1.5-4.2-40.6-43.3-45.4-45.5C76.1 13.3 73 13 60 13.1c-10.8 0-16.7.4-19.5 1.4zM73 34.7c0 16.3 1 20.5 5.9 25.4C83.8 65 88 66 104.3 66H118v60.2l-3.4 3.4-3.4 3.4H42.8l-3.4-3.4-3.4-3.4V27.8l3.4-3.4 3.4-3.4H73v13.7zM97.5 42l16 16H87.8l-3.4-3.4-3.4-3.4V38.6c0-6.9.1-12.6.3-12.6.1 0 7.4 7.2 16.2 16z"/><path d="M52.2 77.9c-.8.4-1.2 1.9-1 3.2l.3 2.4h51l.3-2.4c.2-1.3-.2-2.8-1-3.2-.7-.5-11.9-.9-24.8-.9s-24.1.4-24.8.9zM51.4 97.4c-.3.8-.4 2.3-.2 3.3.3 1.7 2 1.8 25.8 1.8h25.5v-6l-25.3-.3c-21.4-.2-25.3 0-25.8 1.2zM53.3 115c-2.7 1.1-3.2 5.5-.7 6.4 2 .8 46.8.8 48.8 0 2.6-1 2-5.3-1-6.4-3.2-1.2-44.1-1.2-47.1 0z"/></g></svg>