<?xml version="1.0" standalone="no"?>
<!DOCTYPE svg PUBLIC "-//W3C//DTD SVG 20010904//EN"
 "http://www.w3.org/TR/2001/REC-SVG-20010904/DTD/svg10.dtd">
<svg version="1.0" xmlns="http://www.w3.org/2000/svg"
 width="154.000000pt" height="154.000000pt" viewBox="0 0 154.000000 154.000000"
 preserveAspectRatio="xMidYMid meet">
<metadata>
Created by potrace 1.13, written by Peter Selinger 2001-2015
</metadata>
<g transform="translate(0.000000,154.000000) scale(0.100000,-0.100000)"
fill="#101C3C" stroke="none">
<path d="M405 1395 c-50 -18 -100 -71 -114 -122 -15 -53 -15 -954 0 -1008 14
-51 73 -110 124 -124 54 -15 656 -15 710 0 51 14 110 73 124 124 14 53 15 633
0 671 -15 42 -406 433 -454 455 -34 16 -65 19 -195 18 -108 0 -167 -4 -195
-14z m325 -202 c0 -163 10 -205 59 -254 49 -49 91 -59 254 -59 l137 0 0 -301
0 -301 -34 -34 -34 -34 -342 0 -342 0 -34 34 -34 34 0 492 0 492 34 34 34 34
151 0 151 0 0 -137z m245 -73 l160 -160 -129 0 -128 0 -34 34 -34 34 0 126 c0
69 1 126 3 126 1 0 74 -72 162 -160z"/>
<path d="M522 761 c-8 -4 -12 -19 -10 -32 l3 -24 255 0 255 0 3 24 c2 13 -2
28 -10 32 -7 5 -119 9 -248 9 -129 0 -241 -4 -248 -9z"/>
<path d="M514 566 c-3 -8 -4 -23 -2 -33 3 -17 20 -18 258 -18 l255 0 0 30 0
30 -253 3 c-214 2 -253 0 -258 -12z"/>
<path d="M533 390 c-27 -11 -32 -55 -7 -64 20 -8 468 -8 488 0 26 10 20 53
-10 64 -32 12 -441 12 -471 0z"/>
</g>
</svg>
