<svg xmlns="http://www.w3.org/2000/svg" viewBox="0 0 40 40"><path fill="#101C3C" d="M26 26.5H14c-1.4 0-2.5-1.1-2.5-2.5v-8c0-1.4 1.1-2.5 2.5-2.5h12c1.4 0 2.5 1.1 2.5 2.5v8c0 1.4-1.1 2.5-2.5 2.5zm-12-12c-.8 0-1.5.7-1.5 1.5v8c0 .8.7 1.5 1.5 1.5h12c.8 0 1.5-.7 1.5-1.5v-8c0-.8-.7-1.5-1.5-1.5H14z"/><path fill="#101C3C" d="M28 22.9c-2.8 0-4.4-.9-5.8-1.6-1.2-.7-2.4-1.3-4.3-1.3-3.2 0-5.5 2.7-5.5 2.7-.1.1-.2.2-.4.2l-.4-.8c.1-.1 2.6-3.1 6.3-3.1 2.2 0 3.5.7 4.8 1.4 1.3.7 2.7 1.5 5.3 1.5v1zM24.5 19.4c-.8 0-1.5-.7-1.5-1.5s.7-1.5 1.5-1.5 1.5.7 1.5 1.5-.7 1.5-1.5 1.5zm0-2c-.3 0-.5.2-.5.5s.2.5.5.5.5-.2.5-.5-.2-.5-.5-.5z"/></svg>