<svg version="1" xmlns="http://www.w3.org/2000/svg" width="205.333" height="205.333" viewBox="0 0 154.000000 154.000000"><g fill="#101C3C"><path d="M25.5 29.5c-5 1.8-10 7.1-11.4 12.2-1.5 5.2-1.5 65.5 0 70.8 1.4 5.1 7.3 11 12.4 12.4 5.5 1.5 95.5 1.5 101 0 5.1-1.4 11-7.3 12.4-12.4 1.5-5.4 1.5-65.6 0-71-1.4-5.1-7.3-11-12.4-12.4-6.4-1.8-96.8-1.4-102 .4zm104.1 9.9l3.4 3.4V91h-2.7c-7.5-.1-17.6-3.4-32.1-10.5C79.9 71.5 74.7 70 61.7 70c-12.2 0-21.6 2.9-32.1 9.8-3.9 2.6-7.4 4.8-7.8 5-.5.2-.8-9.2-.8-20.8V42.8l3.4-3.4 3.4-3.4h98.4l3.4 3.4zM74 78.6c3.6.8 11.7 4.1 18 7.3 13.3 6.8 23.5 10.6 30.6 11.6 11.1 1.4 10.4.9 10.4 7.7 0 5.5-.3 6.3-3.4 9.4l-3.4 3.4H27.8l-3.4-3.4c-3.3-3.3-3.4-3.7-3.4-10.8 0-7.2.1-7.5 3.8-11 6.9-6.6 19.1-13.1 28.7-15.1 4.5-1 14.4-.6 20.5.9z"/><path d="M106.4 51c-3.7 1.5-6.4 5.9-6.4 10.6 0 9.2 10.7 13.9 17.9 7.8 9.5-8 .1-23.1-11.5-18.4z"/></g></svg>