<?xml version="1.0" standalone="no"?>
<!DOCTYPE svg PUBLIC "-//W3C//DTD SVG 20010904//EN"
 "http://www.w3.org/TR/2001/REC-SVG-20010904/DTD/svg10.dtd">
<svg version="1.0" xmlns="http://www.w3.org/2000/svg"
 width="154.000000pt" height="154.000000pt" viewBox="0 0 154.000000 154.000000"
 preserveAspectRatio="xMidYMid meet">
<metadata>
Created by potrace 1.13, written by Peter Selinger 2001-2015
</metadata>
<g transform="translate(0.000000,154.000000) scale(0.100000,-0.100000)"
fill="#101C3C" stroke="none">
<path d="M300 1143 c-73 -28 -114 -98 -107 -187 2 -33 7 -70 11 -81 4 -15 -2
-25 -26 -40 -53 -33 -75 -76 -83 -160 -9 -94 -1 -142 26 -150 38 -12 49 11 49
102 0 89 14 134 47 148 10 5 74 9 143 10 124 2 124 2 152 -26 35 -34 35 -62 1
-103 -39 -46 -52 -86 -59 -179 -8 -105 0 -154 27 -162 40 -13 49 10 49 119 0
80 4 109 19 136 37 70 78 83 193 65 31 -5 64 -3 92 5 59 16 107 0 144 -47 25
-34 27 -44 30 -149 4 -120 12 -142 51 -129 27 8 35 57 27 162 -7 93 -20 133
-59 179 -34 41 -34 69 1 103 28 28 28 28 152 26 69 -1 133 -5 143 -10 33 -14
47 -59 47 -148 0 -91 11 -114 49 -102 13 4 23 18 27 41 8 46 -3 157 -20 198
-13 31 -61 79 -88 88 -10 4 -10 10 0 32 6 15 12 52 12 82 0 100 -58 172 -145
182 -57 6 -86 -2 -126 -35 -62 -53 -85 -145 -54 -220 18 -43 18 -43 1 -43 -7
0 -19 -7 -26 -15 -20 -25 -30 -17 -30 23 0 63 -19 111 -63 156 -122 127 -318
49 -334 -132 -6 -64 -12 -73 -33 -47 -7 8 -19 15 -26 15 -17 0 -17 0 1 43 37
89 -3 199 -87 243 -27 14 -99 18 -128 7z m116 -97 c29 -29 34 -41 34 -81 0
-40 -5 -52 -34 -81 -19 -19 -41 -34 -49 -34 -54 0 -107 57 -107 115 0 38 33
93 63 105 39 16 58 11 93 -24z m798 24 c33 -12 66 -66 66 -105 0 -58 -53 -115
-107 -115 -8 0 -30 15 -49 34 -29 29 -34 41 -34 81 0 40 5 52 34 81 36 36 50
40 90 24z m-364 -108 c50 -50 61 -109 32 -175 -24 -54 -62 -82 -112 -82 -78 0
-139 83 -125 173 10 67 66 122 125 122 36 0 48 -6 80 -38z"/>
</g>
</svg>
