<svg version="1" xmlns="http://www.w3.org/2000/svg" width="205.333" height="205.333" viewBox="0 0 154.000000 154.000000"><path d="M30 39.7c-7.3 2.8-11.4 9.8-10.7 18.7.2 3.3.7 7 1.1 8.1.4 1.5-.2 2.5-2.6 4-5.3 3.3-7.5 7.6-8.3 16-.9 9.4-.1 14.2 2.6 15 3.8 1.2 4.9-1.1 4.9-10.2 0-8.9 1.4-13.4 4.7-14.8 1-.5 7.4-.9 14.3-1 12.4-.2 12.4-.2 15.2 2.6 3.5 3.4 3.5 6.2.1 10.3-3.9 4.6-5.2 8.6-5.9 17.9-.8 10.5 0 15.4 2.7 16.2 4 1.3 4.9-1 4.9-11.9 0-8 .4-10.9 1.9-13.6 3.7-7 7.8-8.3 19.3-6.5 3.1.5 6.4.3 9.2-.5 5.9-1.6 10.7 0 14.4 4.7 2.5 3.4 2.7 4.4 3 14.9.4 12 1.2 14.2 5.1 12.9 2.7-.8 3.5-5.7 2.7-16.2-.7-9.3-2-13.3-5.9-17.9-3.4-4.1-3.4-6.9.1-10.3 2.8-2.8 2.8-2.8 15.2-2.6 6.9.1 13.3.5 14.3 1 3.3 1.4 4.7 5.9 4.7 14.8 0 9.1 1.1 11.4 4.9 10.2 1.3-.4 2.3-1.8 2.7-4.1.8-4.6-.3-15.7-2-19.8-1.3-3.1-6.1-7.9-8.8-8.8-1-.4-1-1 0-3.2.6-1.5 1.2-5.2 1.2-8.2 0-10-5.8-17.2-14.5-18.2-5.7-.6-8.6.2-12.6 3.5-6.2 5.3-8.5 14.5-5.4 22 1.8 4.3 1.8 4.3.1 4.3-.7 0-1.9.7-2.6 1.5-2 2.5-3 1.7-3-2.3 0-6.3-1.9-11.1-6.3-15.6-12.2-12.7-31.8-4.9-33.4 13.2-.6 6.4-1.2 7.3-3.3 4.7-.7-.8-1.9-1.5-2.6-1.5-1.7 0-1.7 0 .1-4.3 3.7-8.9-.3-19.9-8.7-24.3-2.7-1.4-9.9-1.8-12.8-.7zm11.6 9.7c2.9 2.9 3.4 4.1 3.4 8.1s-.5 5.2-3.4 8.1c-1.9 1.9-4.1 3.4-4.9 3.4C31.3 69 26 63.3 26 57.5c0-3.8 3.3-9.3 6.3-10.5 3.9-1.6 5.8-1.1 9.3 2.4zm79.8-2.4c3.3 1.2 6.6 6.6 6.6 10.5 0 5.8-5.3 11.5-10.7 11.5-.8 0-3-1.5-4.9-3.4-2.9-2.9-3.4-4.1-3.4-8.1s.5-5.2 3.4-8.1c3.6-3.6 5-4 9-2.4zM85 57.8c5 5 6.1 10.9 3.2 17.5-2.4 5.4-6.2 8.2-11.2 8.2-7.8 0-13.9-8.3-12.5-17.3C65.5 59.5 71.1 54 77 54c3.6 0 4.8.6 8 3.8z" fill="#101C3C"/></svg>