<svg xmlns="http://www.w3.org/2000/svg" viewBox="0 0 40 40"><path fill="#101C3C" d="M20 21.9c-1.5 0-2.7-1.3-2.7-3s1.2-3 2.7-3 2.7 1.3 2.7 3-1.2 3-2.7 3zm0-5c-.9 0-1.7.9-1.7 2s.7 2 1.7 2 1.7-.9 1.7-2-.8-2-1.7-2z"/><path fill="#101C3C" d="M21.1 20.6h.2c1.6 0 2.9 1.3 2.9 2.9v2.1c0 .3-.2.5-.5.5s-.5-.2-.5-.5v-2.1c0-1-.9-1.9-1.9-1.9h-.2v-1zM18.9 21.6h-.2c-1 0-1.9.9-1.9 1.9v2.1c0 .3-.2.5-.5.5s-.5-.2-.5-.5v-2.1c0-1.6 1.3-2.9 2.9-2.9h.2v1z"/><g><path fill="#101C3C" d="M25.5 19.9c-1.2 0-2.3-1.1-2.3-2.5s1-2.5 2.3-2.5 2.3 1.1 2.3 2.5-1.1 2.5-2.3 2.5zm0-4c-.7 0-1.3.7-1.3 1.5s.6 1.5 1.3 1.5 1.3-.7 1.3-1.5-.6-1.5-1.3-1.5z"/><path fill="#101C3C" d="M26.4 18.7h.2c1.3 0 2.4 1.1 2.4 2.4v1.7c0 .3-.2.5-.5.5s-.5-.2-.5-.5v-1.7c0-.8-.6-1.4-1.4-1.4h-.2v-1zM24.6 19.7h-.2c-.8 0-1.4.6-1.4 1.4 0 .3-.2.5-.5.5s-.5-.2-.5-.5c0-1.3 1.1-2.4 2.4-2.4h.2v1z"/><g><path fill="#101C3C" d="M14.5 19.9c-1.2 0-2.3-1.1-2.3-2.5s1-2.5 2.3-2.5 2.3 1.1 2.3 2.5-1.1 2.5-2.3 2.5zm0-4c-.7 0-1.3.7-1.3 1.5s.6 1.5 1.3 1.5 1.3-.7 1.3-1.5-.6-1.5-1.3-1.5z"/><path fill="#101C3C" d="M15.4 18.7h.2c1.3 0 2.4 1.1 2.4 2.4 0 .3-.2.5-.5.5s-.5-.2-.5-.5c0-.8-.6-1.4-1.4-1.4h-.2v-1zM13.6 19.7h-.2c-.8 0-1.4.6-1.4 1.4v1.7c0 .3-.2.5-.5.5s-.5-.2-.5-.5v-1.7c0-1.3 1.1-2.4 2.4-2.4h.2v1z"/></g></g></svg>