<?xml version="1.0" standalone="no"?>
<!DOCTYPE svg PUBLIC "-//W3C//DTD SVG 20010904//EN"
 "http://www.w3.org/TR/2001/REC-SVG-20010904/DTD/svg10.dtd">
<svg version="1.0" xmlns="http://www.w3.org/2000/svg"
 width="154.000000pt" height="154.000000pt" viewBox="0 0 154.000000 154.000000"
 preserveAspectRatio="xMidYMid meet">
<metadata>
Created by potrace 1.13, written by Peter Selinger 2001-2015
</metadata>
<g transform="translate(0.000000,154.000000) scale(0.100000,-0.100000)"
fill="#101C3C" stroke="none">
<path d="M255 1245 c-50 -18 -100 -71 -114 -122 -15 -52 -15 -655 0 -708 14
-51 73 -110 124 -124 55 -15 955 -15 1010 0 51 14 110 73 124 124 15 54 15
656 0 710 -14 51 -73 110 -124 124 -64 18 -968 14 -1020 -4z m1041 -99 l34
-34 0 -241 0 -241 -27 0 c-75 1 -176 34 -321 105 -183 90 -235 105 -365 105
-122 0 -216 -29 -321 -98 -39 -26 -74 -48 -78 -50 -5 -2 -8 92 -8 208 l0 212
34 34 34 34 492 0 492 0 34 -34z m-556 -392 c36 -8 117 -41 180 -73 133 -68
235 -106 306 -116 111 -14 104 -9 104 -77 0 -55 -3 -63 -34 -94 l-34 -34 -492
0 -492 0 -34 34 c-33 33 -34 37 -34 108 0 72 1 75 38 110 69 66 191 131 287
151 45 10 144 6 205 -9z"/>
<path d="M1064 1030 c-37 -15 -64 -59 -64 -106 0 -92 107 -139 179 -78 95 80
1 231 -115 184z"/>
</g>
</svg>
