<?xml version="1.0" encoding="UTF-8" ?>
<!DOCTYPE svg PUBLIC "-//W3C//DTD SVG 1.1//EN" "http://www.w3.org/Graphics/SVG/1.1/DTD/svg11.dtd">
<svg width="500pt" height="64pt" viewBox="0 0 500 64" version="1.1" xmlns="http://www.w3.org/2000/svg">
<path fill="#fcfcfc" d=" M 0.00 0.00 L 500.00 0.00 L 500.00 64.00 L 0.00 64.00 L 0.00 0.00 Z" />
<path fill="#cf2e20" d=" M 322.12 1.25 C 325.69 0.78 329.31 1.09 332.90 1.00 C 350.92 2.76 364.45 23.10 358.64 40.37 C 356.31 48.42 350.59 55.22 343.38 59.38 C 336.10 63.03 327.40 64.39 319.58 61.66 C 311.70 59.56 305.32 53.71 301.22 46.83 C 295.57 36.72 296.12 23.34 303.09 13.99 C 307.54 7.53 314.41 2.84 322.12 1.25 Z" />
<path fill="#fcfcfc" d=" M 323.99 8.86 C 330.28 7.28 336.91 9.32 342.21 12.76 C 347.06 16.09 350.09 21.42 351.58 27.02 C 353.38 34.98 350.30 43.88 344.14 49.17 C 342.88 44.67 341.77 39.95 338.90 36.14 C 333.14 27.85 323.28 21.93 313.01 22.34 C 311.10 22.36 309.19 22.48 307.29 22.53 C 309.79 15.33 316.77 10.49 323.99 8.86 Z" />
</svg>
