<svg version="1" xmlns="http://www.w3.org/2000/svg" width="300" height="300" viewBox="0 0 225.000000 225.000000"><path d="M93 4.5c-38.3 7-71.1 35.1-83.9 71.9-12 34.2-6.2 72.5 15.4 101.1 21.4 28.5 53 44.5 88 44.5s66.6-16 88-44.5c28.7-38.1 28.7-91.9 0-130-17.3-23-41.7-38.2-69.3-43-10.3-1.8-28.1-1.8-38.2 0zm40.5 26.4c28.6 7.4 51.3 29.5 60.1 58.6 2.4 7.9 2.7 10.7 2.7 23s-.3 15.1-2.7 22.8c-1.4 4.8-4.2 11.8-6.1 15.6-3.2 6.5-12.8 19.5-17.2 23.4-2.1 1.8-2.1 1.7-3.2-5-7.2-41.4-39.5-76.2-80.6-86.9-12.7-3.3-33-4.3-44.7-2.2-4.3.8-7.8 1.2-7.8.9 0-.3 1.9-4 4.1-8.1 12.7-23.4 33.6-38.5 60.2-43.6 9.4-1.8 24.9-1.1 35.2 1.5z" fill="#CF2E20"/></svg>